<svg xmlns="http://www.w3.org/2000/svg" viewBox="0 0 512 512">
  <defs>
    <linearGradient id="lukis-bg-512" x1="0%" y1="0%" x2="100%" y2="100%">
      <stop offset="0%" stop-color="#ffd9ec" />
      <stop offset="100%" stop-color="#ff8dc8" />
    </linearGradient>
    <linearGradient id="lukis-face-512" x1="0%" y1="0%" x2="0%" y2="100%">
      <stop offset="0%" stop-color="#222b37" />
      <stop offset="100%" stop-color="#0f172a" />
    </linearGradient>
  </defs>
  <rect width="512" height="512" rx="104" fill="url(#lukis-bg-512)" />
  <g transform="translate(42.6667 42.6667) scale(2.6667)">
    <path d="M48 68 L74 20 L96 80 Q74 68 48 68" fill="#111827" />
    <path d="M144 68 L118 20 L96 80 Q118 68 144 68" fill="#111827" />
    <path d="M56 66 L74 32 L90 78 Q70 70 56 66" fill="#f9a8d4" />
    <path d="M136 66 L118 32 L102 78 Q122 70 136 66" fill="#f9a8d4" />
    <circle cx="96" cy="112" r="72" fill="url(#lukis-face-512)" />
    <path d="M96 58 C70 58 54 80 54 110 C54 144 74 164 96 164 C118 164 138 144 138 110 C138 80 122 58 96 58 Z" fill="#111827" />
    <path d="M96 148 C72 148 60 128 60 108 C60 88 74 72 96 72 C118 72 132 88 132 108 C132 128 120 148 96 148 Z" fill="#f4f6fb" />
    <path d="M96 84 C82 84 72 96 72 110 C72 130 86 140 96 140 C106 140 120 130 120 110 C120 96 110 84 96 84 Z" fill="#ffffff" />
    <ellipse cx="72" cy="110" rx="18" ry="22" fill="#facc15" />
    <ellipse cx="120" cy="110" rx="18" ry="22" fill="#facc15" />
    <ellipse cx="72" cy="110" rx="7" ry="9" fill="#111827" />
    <ellipse cx="120" cy="110" rx="7" ry="9" fill="#111827" />
    <circle cx="68" cy="104" r="3" fill="#fff9db" />
    <circle cx="116" cy="104" r="3" fill="#fff9db" />
    <path d="M92 128 Q96 132 100 128" stroke="#111827" stroke-width="3" stroke-linecap="round" fill="none" />
    <path d="M96 118 Q90 124 96 126 Q102 124 96 118" fill="#f4a2c4" />
    <path d="M76 132 Q60 134 48 128" stroke="#e5e7eb" stroke-width="3" stroke-linecap="round" />
    <path d="M116 132 Q132 134 144 128" stroke="#e5e7eb" stroke-width="3" stroke-linecap="round" />
    <path d="M84 154 C88 162 104 162 108 154" stroke="#ffffff" stroke-width="6" stroke-linecap="round" />
    <path d="M68 152 C72 170 120 170 124 152" fill="#f4f6fb" />
    <circle cx="96" cy="102" r="4" fill="#111827" />
    <path d="M96 112 L96 120" stroke="#111827" stroke-width="2" stroke-linecap="round" />
    <path d="M86 120 Q96 124 86 128" stroke="#111827" stroke-width="2" stroke-linecap="round" fill="none" />
    <path d="M106 120 Q96 124 106 128" stroke="#111827" stroke-width="2" stroke-linecap="round" fill="none" />
  </g>
</svg>
