<svg xmlns="http://www.w3.org/2000/svg" viewBox="0 0 512 512">
  <defs>
    <linearGradient id="sakura-bg-512" x1="15%" y1="5%" x2="85%" y2="95%">
      <stop offset="0%" stop-color="#fff5fb" />
      <stop offset="100%" stop-color="#ffb4d9" />
    </linearGradient>
    <radialGradient id="sakura-fur-512" cx="40%" cy="35%" r="75%">
      <stop offset="0%" stop-color="#f6adc9" />
      <stop offset="1" stop-color="#fbd6e8" />
    </radialGradient>
    <linearGradient id="sakura-ear-512" x1="0%" y1="100%" x2="100%" y2="0%">
      <stop offset="0%" stop-color="#f6adc9" />
      <stop offset="100%" stop-color="#fbd6e8" />
    </linearGradient>
    <linearGradient id="sakura-muzzle-512" x1="0%" y1="0%" x2="0%" y2="100%">
      <stop offset="0%" stop-color="#ffeef7" />
      <stop offset="100%" stop-color="#ffd9ec" />
    </linearGradient>
  </defs>
  <rect width="512" height="512" rx="104" fill="url(#sakura-bg-512)" />
  <g transform="translate(256 280)">
    <path
      d="M-138 -54 L-170 -170 L-70 -108 Q-104 -80 -138 -54"
      fill="url(#sakura-ear-512)"
      stroke="#602041"
      stroke-width="12"
      stroke-linejoin="round"
    />
    <path
      d="M138 -54 L170 -170 L70 -108 Q104 -80 138 -54"
      fill="url(#sakura-ear-512)"
      stroke="#602041"
      stroke-width="12"
      stroke-linejoin="round"
    />
    <path
      d="M-112 -60 L-142 -152 L-64 -100 Q-90 -82 -112 -60"
      fill="#ffb8d6"
      opacity="0.9"
    />
    <path
      d="M112 -60 L142 -152 L64 -100 Q90 -82 112 -60"
      fill="#ffb8d6"
      opacity="0.9"
    />
    <circle cx="0" cy="0" r="168" fill="url(#sakura-fur-512)" stroke="#602041" stroke-width="14" />
    <path
      d="M0 126 C-70 126 -124 70 -124 6 C-124 -50 -80 -110 0 -110 C80 -110 124 -50 124 6 C124 70 70 126 0 126"
      fill="url(#sakura-muzzle-512)"
    />
    <ellipse cx="-72" cy="26" rx="46" ry="34" fill="#ff9ac4" opacity="0.65" />
    <ellipse cx="72" cy="26" rx="46" ry="34" fill="#ff9ac4" opacity="0.65" />
    <g transform="translate(-74 -28)">
      <ellipse cx="0" cy="0" rx="34" ry="46" fill="#ffeef7" stroke="#602041" stroke-width="8" />
      <ellipse cx="0" cy="0" rx="18" ry="24" fill="#8ff0ff" />
      <ellipse cx="0" cy="-4" rx="10" ry="14" fill="#2d1428" />
      <circle cx="-4" cy="-8" r="4" fill="#fff8fb" />
    </g>
    <g transform="translate(74 -28)">
      <ellipse cx="0" cy="0" rx="34" ry="46" fill="#ffeef7" stroke="#602041" stroke-width="8" />
      <ellipse cx="0" cy="0" rx="18" ry="24" fill="#8ff0ff" />
      <ellipse cx="0" cy="-4" rx="10" ry="14" fill="#2d1428" />
      <circle cx="-4" cy="-8" r="4" fill="#fff8fb" />
    </g>
    <path
      d="M-16 26 Q0 14 16 26"
      fill="#ff86b6"
      stroke="#602041"
      stroke-width="6"
      stroke-linecap="round"
      stroke-linejoin="round"
    />
    <path d="M0 30 Q0 48 -8 58" stroke="#602041" stroke-width="6" stroke-linecap="round" fill="none" />
    <path d="M0 30 Q0 48 8 58" stroke="#602041" stroke-width="6" stroke-linecap="round" fill="none" />
    <path d="M-34 84 Q0 96 34 84" stroke="#602041" stroke-width="8" stroke-linecap="round" fill="none" />
    <path d="M-104 58 Q-162 54 -196 36" stroke="#ffeef7" stroke-width="10" stroke-linecap="round" opacity="0.85" />
    <path d="M104 58 Q162 54 196 36" stroke="#ffeef7" stroke-width="10" stroke-linecap="round" opacity="0.85" />
    <path d="M-52 64 Q-104 80 -150 74" stroke="#ffd9ec" stroke-width="10" stroke-linecap="round" opacity="0.7" />
    <path d="M52 64 Q104 80 150 74" stroke="#ffd9ec" stroke-width="10" stroke-linecap="round" opacity="0.7" />
    <path d="M-150 -18 Q-210 -16 -244 -36" stroke="#f6adc9" stroke-width="12" stroke-linecap="round" opacity="0.55" />
    <path d="M150 -18 Q210 -16 244 -36" stroke="#f6adc9" stroke-width="12" stroke-linecap="round" opacity="0.55" />
  </g>
</svg>
